Coordinates
version=1
nRows=60
nColumns=12
inDegrees=yes

Units are S.I. units (second, meters, Newtons, ...)
Angles are in degrees

endheader
time	SC_y	SC_z	SC_x	AC_y	AC_z	AC_x	GH_y	GH_z	GH_yy	EL_x	PS_y
       0.0              -35.54          7.131          51.94          50.96         -15.29         -6.976          4.457          67.17          128.1          15.77          65.55
   0.01793              -35.54           7.13          51.94          50.96         -15.28         -6.974           4.47          67.16          128.1          15.78          65.55
   0.03586              -35.53           7.13          51.94          50.96         -15.28         -6.973          4.483          67.15          128.1          15.79          65.55
   0.05378              -35.53          7.129          51.94          50.96         -15.27         -6.971          4.498          67.14          128.1           15.8          65.55
   0.07171              -35.53          7.129          51.94          50.95         -15.27         -6.969          4.513          67.13          128.1          15.82          65.55
   0.08964              -35.53          7.128          51.93          50.95         -15.27         -6.967           4.53          67.11          128.1          15.83          65.55
    0.1076              -35.52          7.127          51.93          50.95         -15.26         -6.965          4.547           67.1          128.0          15.84          65.55
    0.1255              -35.52          7.127          51.93          50.95         -15.26         -6.962          4.566          67.09          128.0          15.86          65.55
    0.1434              -35.52          7.126          51.93          50.95         -15.25          -6.96          4.586          67.07          128.0          15.87          65.55
    0.1614              -35.51          7.125          51.93          50.95         -15.25         -6.957          4.608          67.06          128.0          15.89          65.55
    0.1793              -35.51          7.124          51.93          50.95         -15.24         -6.954          4.631          67.04          128.0          15.91          65.55
    0.1972               -35.5          7.123          51.93          50.95         -15.23         -6.951          4.656          67.02          128.0          15.93          65.55
    0.2151               -35.5          7.122          51.92          50.95         -15.23         -6.948          4.683           67.0          127.9          15.95          65.55
    0.2331              -35.49          7.121          51.92          50.95         -15.22         -6.944          4.712          66.98          127.9          15.97          65.55
     0.251              -35.49           7.12          51.92          50.95         -15.21          -6.94          4.743          66.96          127.9           16.0          65.55
    0.2689              -35.48          7.119          51.92          50.95          -15.2         -6.936          4.777          66.94          127.9          16.02          65.55
    0.2868              -35.47          7.117          51.92          50.95         -15.19         -6.932          4.814          66.91          127.9          16.05          65.55
    0.3048              -35.46          7.116          51.91          50.95         -15.18         -6.927          4.854          66.88          127.8          16.08          65.55
    0.3227              -35.46          7.114          51.91          50.95         -15.17         -6.921          4.898          66.85          127.8          16.12          65.55
    0.3406              -35.45          7.112          51.91          50.95         -15.16         -6.915          4.947          66.81          127.8          16.15          65.55
    0.3586              -35.44           7.11           51.9          50.95         -15.14         -6.909          4.999          66.78          127.7           16.2          65.55
    0.3765              -35.43          7.108           51.9          50.95         -15.13         -6.901          5.058          66.73          127.7          16.24          65.55
    0.3944              -35.41          7.105           51.9          50.95         -15.11         -6.893          5.122          66.69          127.6          16.29          65.55
    0.4123               -35.4          7.103          51.89          50.95         -15.09         -6.884          5.193          66.64          127.6          16.35          65.55
    0.4303              -35.39            7.1          51.89          50.95         -15.07         -6.875          5.273          66.58          127.5          16.41          65.55
    0.4482              -35.37          7.096          51.88          50.95         -15.05         -6.864          5.361          66.52          127.5          16.48          65.55
    0.4661              -35.35          7.093          51.87          50.95         -15.02         -6.851           5.46          66.45          127.4          16.55          65.55
    0.4841              -35.33          7.088          51.87          50.95         -14.99         -6.837          5.571          66.37          127.3          16.64          65.54
     0.502               -35.3          7.084          51.86          50.95         -14.96         -6.822          5.697          66.28          127.2          16.74          65.54
    0.5199              -35.28          7.078          51.85          50.95         -14.92         -6.804           5.84          66.17          127.1          16.85          65.54
    0.5378              -35.25          7.072          51.84          50.95         -14.88         -6.784          6.003          66.06          127.0          16.98          65.54
    0.5558              -35.21          7.065          51.83          50.95         -14.83         -6.761           6.19          65.92          126.9          17.12          65.54
    0.5737              -35.17          7.057          51.81          50.95         -14.78         -6.734          6.407          65.77          126.8          17.29          65.54
    0.5916              -35.12          7.047           51.8          50.94         -14.71         -6.703          6.658          65.59          126.6          17.49          65.54
    0.6095              -35.07          7.036          51.78          50.94         -14.63         -6.666          6.952          65.37          126.4          17.72          65.54
    0.6275               -35.0          7.023          51.76          50.94         -14.54         -6.623          7.298          65.13          126.1          17.99          65.54
    0.6454              -34.92          7.007          51.73          50.94         -14.43         -6.572           7.71          64.83          125.9          18.31          65.54
    0.6633              -34.83          6.988           51.7          50.94          -14.3         -6.511          8.203          64.48          125.5          18.69          65.54
    0.6813              -34.72          6.965          51.66          50.93         -14.15         -6.436            8.8          64.05          125.1          19.16          65.53
    0.6992              -34.58          6.938          51.61          50.93         -13.96         -6.346          9.529          63.52          124.6          19.73          65.53
    0.7171              -34.41          6.903          51.55          50.92         -13.72         -6.234          10.43          62.88          124.0          20.43          65.53
     0.735               -34.2          6.861          51.48          50.92         -13.43         -6.095          11.55          62.07          123.2           21.3          65.52
     0.753              -33.93          6.807          51.39          50.91         -13.06         -5.919          12.97          61.06          122.2          22.41          65.52
    0.7709              -33.59          6.738          51.27           50.9         -12.59         -5.696          14.76          59.77          121.0          23.81          65.51
    0.7888              -33.15          6.651          51.13          50.89         -11.99          -5.41          17.06          58.12          119.4           25.6          65.51
    0.8068              -32.59          6.538          50.93          50.87         -11.21         -5.043          20.02           56.0          117.4           27.9           65.5
    0.8247              -31.88          6.395          50.69          50.85         -10.23         -4.575          23.79          53.29          114.7          30.84          65.48
    0.8426              -30.98          6.214          50.38          50.83         -8.984         -3.986          28.53          49.88          111.5          34.54          65.47
    0.8605              -29.89          5.994          50.01           50.8         -7.471         -3.268          34.31          45.74          107.5          39.04          65.45
    0.8785              -28.62          5.739          49.58          50.76         -5.718         -2.436           41.0          40.93          102.8          44.27          65.43
    0.8964              -27.25          5.463          49.11          50.72         -3.819         -1.535          48.26          35.72          97.83          49.92           65.4
    0.9143              -25.87          5.187          48.64          50.69         -1.921        -0.6338          55.51          30.51          92.82          55.57          65.38
    0.9323              -24.61          4.932          48.21          50.65        -0.1676         0.1982           62.2          25.71          88.19           60.8          65.36
    0.9502              -23.51          4.712          47.84          50.62          1.345         0.9161          67.98          21.56           84.2           65.3          65.34
    0.9681              -22.61          4.532          47.53           50.6          2.586          1.505          72.72          18.15          80.92           69.0          65.32
     0.986               -21.9          4.388          47.29          50.58          3.574          1.974           76.5          15.45          78.32          71.94          65.31
     1.004              -21.34          4.276          47.09          50.56          4.346           2.34          79.45          13.33          76.28          74.24           65.3
     1.022              -20.91          4.188          46.95          50.55          4.949          2.626          81.75          11.67          74.69          76.03          65.29
      1.04              -20.57           4.12          46.83          50.54          5.419          2.849          83.55          10.38          73.44          77.43          65.29
     1.058               -20.3          4.066          46.74          50.53          5.789          3.025          84.96          9.369          72.47          78.54          65.28
